<?xml version="1.0" standalone="no"?>
<!DOCTYPE svg PUBLIC "-//W3C//DTD SVG 20010904//EN"
 "http://www.w3.org/TR/2001/REC-SVG-20010904/DTD/svg10.dtd">
<svg version="1.0" xmlns="http://www.w3.org/2000/svg"
 width="2000.000000pt" height="1377.000000pt" viewBox="0 0 2000.000000 1377.000000"
 preserveAspectRatio="xMidYMid meet">

<g transform="translate(0.000000,1377.000000) scale(0.100000,-0.100000)"
fill="#000000" stroke="none">
<path d="M4894 12510 c-214 -56 -367 -204 -429 -415 -34 -117 -17 -296 42
-427 l26 -58 -22 -49 c-27 -64 -26 -104 3 -168 33 -71 87 -106 170 -111 49 -3
70 1 106 20 145 75 144 284 -2 359 -36 19 -82 23 -158 16 -21 -2 -28 6 -48 56
-34 85 -45 161 -39 264 4 75 11 103 36 156 60 125 180 228 314 269 97 29 238
23 321 -15 117 -54 193 -142 237 -275 12 -37 23 -68 24 -70 2 -2 20 0 40 4 37
7 37 7 31 48 -11 71 -84 205 -146 267 -127 128 -322 177 -506 129z"/>
<path d="M6122 12510 c-199 -52 -353 -197 -418 -392 -25 -75 -26 -89 -21 -197
6 -116 16 -164 57 -260 23 -51 23 -52 4 -94 -11 -24 -19 -63 -18 -92 3 -215
305 -272 389 -73 55 132 -42 278 -185 280 -26 0 -58 -3 -69 -7 -18 -5 -25 1
-42 39 -44 100 -59 238 -39 347 30 161 171 308 343 361 57 17 87 20 167 16
121 -6 203 -40 280 -117 52 -52 114 -165 126 -229 6 -32 9 -34 37 -28 16 3 33
6 38 6 25 0 -7 114 -59 208 -36 65 -136 162 -202 195 -114 56 -260 70 -388 37z"/>
<path d="M7370 12514 c-141 -30 -294 -136 -371 -255 -54 -85 -89 -205 -89
-308 0 -98 24 -208 64 -290 l25 -52 -21 -36 c-26 -43 -29 -134 -5 -178 20 -40
75 -91 110 -104 101 -38 220 13 262 111 61 148 -72 311 -226 277 -22 -5 -44
-7 -49 -4 -17 11 -60 163 -66 235 -15 189 60 344 215 448 92 61 180 85 299 80
90 -3 106 -7 175 -41 116 -57 192 -155 229 -291 l12 -47 41 7 c22 3 41 7 42 8
1 1 -4 26 -12 56 -35 133 -129 262 -237 327 -107 65 -261 87 -398 57z"/>
<path d="M8632 12515 c-105 -23 -208 -80 -287 -160 -123 -123 -183 -276 -172
-440 6 -91 34 -199 68 -266 18 -36 18 -37 -1 -75 -44 -85 -18 -193 63 -258 50
-40 143 -49 203 -18 117 60 152 196 79 302 -44 63 -129 96 -207 79 -47 -11
-48 -11 -78 68 -50 133 -43 324 17 435 60 112 200 219 324 247 112 26 256 7
346 -46 88 -51 184 -189 200 -286 l6 -38 41 6 c22 4 43 9 44 10 8 8 -33 125
-65 186 -107 205 -340 306 -581 254z"/>
<path d="M9865 12515 c-280 -62 -481 -320 -462 -595 7 -97 27 -181 62 -258
l25 -54 -20 -38 c-37 -73 -18 -183 41 -237 55 -50 155 -68 222 -39 76 32 135
137 121 216 -23 123 -133 194 -261 166 -29 -7 -31 -5 -52 48 -56 136 -56 325
-2 438 56 118 176 218 310 258 93 29 226 25 314 -9 113 -44 234 -193 253 -313
7 -40 11 -42 64 -32 30 7 31 8 25 43 -17 90 -85 210 -161 283 -119 116 -301
162 -479 123z"/>
<path d="M11135 12524 c-261 -55 -429 -212 -490 -459 -28 -112 -8 -269 50
-401 l24 -54 -21 -46 c-59 -135 37 -283 183 -284 116 0 204 85 204 199 -1 138
-122 229 -262 197 -31 -7 -31 -6 -52 49 -32 86 -40 132 -41 232 0 148 43 250
149 350 98 93 225 138 370 131 81 -4 106 -10 162 -36 71 -34 121 -78 170 -148
33 -48 69 -139 69 -175 0 -19 4 -20 43 -14 23 4 44 9 46 11 10 9 -33 134 -65
192 -71 126 -194 218 -331 247 -64 14 -164 18 -208 9z"/>
<path d="M12363 12515 c-271 -59 -467 -294 -466 -560 1 -102 21 -202 60 -287
25 -57 25 -58 8 -95 -30 -63 -31 -114 -2 -176 34 -75 86 -110 171 -115 78 -4
138 24 181 86 26 38 30 52 30 112 0 60 -4 74 -30 112 -40 56 -100 89 -164 90
-27 0 -58 -3 -70 -7 -47 -15 -97 167 -88 323 4 75 11 105 36 157 56 121 180
226 314 267 97 29 238 23 320 -15 75 -34 129 -79 173 -142 38 -56 88 -180 79
-196 -7 -11 10 -11 55 -3 31 7 32 8 26 48 -4 23 -25 79 -47 124 -108 223 -337
331 -586 277z"/>
<path d="M13574 12510 c-206 -54 -352 -190 -421 -393 -43 -127 -29 -308 35
-450 24 -53 28 -68 17 -77 -7 -6 -18 -32 -24 -57 -33 -131 61 -253 195 -253
213 0 281 285 91 382 -41 20 -113 27 -155 14 -27 -9 -45 25 -73 131 -58 230
16 432 206 555 92 60 176 82 295 76 82 -4 108 -10 164 -36 111 -52 205 -169
237 -295 10 -42 15 -48 33 -43 12 3 29 6 39 6 33 0 10 98 -51 208 -36 65 -138
164 -203 196 -114 55 -260 69 -385 36z"/>
<path d="M14820 12514 c-201 -43 -373 -200 -435 -396 -44 -138 -28 -319 39
-459 24 -50 24 -52 6 -83 -56 -95 -15 -227 84 -276 138 -66 296 30 296 180 0
133 -117 224 -253 197 -37 -8 -38 -8 -58 38 -54 122 -62 305 -19 415 46 116
157 226 280 277 94 38 238 44 330 13 74 -25 145 -74 189 -129 36 -46 89 -153
97 -199 6 -33 7 -33 48 -27 22 4 42 8 44 10 8 7 -46 151 -78 206 -114 193
-336 284 -570 233z"/>
<path d="M1980 12113 c0 -4 13 -21 30 -38 32 -33 132 -222 200 -380 108 -249
158 -393 365 -1040 100 -313 243 -660 382 -925 42 -80 126 -242 186 -360 61
-118 128 -246 149 -285 l38 -70 0 846 0 846 -33 44 c-18 24 -41 58 -52 74 -16
27 -83 113 -264 340 -320 403 -532 616 -854 859 -118 89 -147 107 -147 89z"/>
<path d="M17019 11769 c0 -2 -2 -58 -4 -124 -8 -282 -90 -693 -270 -1345 -36
-129 -78 -302 -95 -385 l-30 -150 2 -830 3 -830 32 49 c18 27 30 53 26 59 -3
6 -2 7 3 4 10 -6 76 101 228 369 225 400 388 780 443 1037 28 129 24 438 -11
737 -15 129 -29 255 -32 280 -32 303 -113 657 -204 896 -23 60 -49 135 -59
166 -14 49 -29 80 -32 67z"/>
<path d="M18253 10778 c-73 -78 -121 -165 -333 -613 -87 -185 -341 -718 -447
-940 -505 -1057 -636 -1357 -784 -1800 l-64 -190 -2 -1050 c-1 -688 2 -1034 9
-1005 5 25 29 149 54 275 94 477 197 869 291 1105 56 141 156 346 309 635 226
427 329 642 436 910 228 570 404 1258 556 2180 45 267 56 383 44 465 -9 67
-25 73 -69 28z"/>
<path d="M2103 10683 c-18 -64 -5 -289 31 -548 115 -820 228 -1363 392 -1882
124 -395 244 -678 543 -1282 73 -148 199 -429 232 -521 l24 -65 3 862 2 861
-54 130 c-54 126 -183 422 -556 1272 -100 228 -229 523 -287 655 -149 341
-196 432 -264 509 -37 43 -56 45 -66 9z"/>
<path d="M19079 9748 c-14 -24 -84 -137 -156 -253 -71 -115 -200 -329 -286
-475 -440 -748 -596 -1060 -927 -1850 -192 -460 -259 -615 -380 -885 -198
-439 -269 -628 -495 -1305 -172 -514 -215 -654 -214 -694 0 -44 34 49 238 654
235 698 311 905 451 1215 90 199 197 450 285 665 242 592 354 848 505 1155
199 402 513 953 892 1563 76 123 139 228 141 234 1 7 -5 13 -13 15 -9 2 -26
-14 -41 -39z"/>
<path d="M1236 9742 c-2 -4 38 -82 91 -172 180 -313 457 -826 633 -1175 231
-458 329 -689 627 -1480 75 -198 199 -517 275 -710 217 -543 243 -616 393
-1120 69 -235 74 -246 74 -191 1 45 -17 119 -78 325 -100 334 -170 534 -306
876 -59 149 -120 304 -135 345 -16 41 -100 269 -188 505 -170 460 -294 770
-390 980 -194 424 -489 985 -882 1678 -76 133 -99 162 -114 139z"/>
<path d="M7080 9077 c-49 -25 -62 -95 -23 -124 20 -15 89 -17 98 -4 3 6 -9 7
-30 4 -44 -7 -75 17 -75 58 0 57 77 75 191 43 l58 -16 -18 -37 c-10 -20 -33
-80 -50 -133 -39 -117 -66 -159 -108 -172 -100 -28 -121 117 -23 151 34 12 35
12 7 12 -42 1 -87 -47 -87 -94 0 -67 66 -104 133 -74 32 15 58 63 97 184 52
160 48 155 131 155 55 0 71 3 76 16 13 34 -67 47 -120 19 -24 -12 -36 -12
-104 5 -89 23 -119 24 -153 7z m358 -24 c2 -9 -10 -13 -42 -13 -25 0 -46 4
-46 9 0 22 81 25 88 4z"/>
<path d="M9472 9068 c-25 -28 -54 -93 -83 -190 -38 -131 -80 -189 -121 -167
-28 15 -23 75 18 200 19 61 33 113 30 116 -3 3 -8 0 -10 -8 -36 -107 -92 -241
-112 -270 -32 -47 -52 -55 -76 -31 -22 21 -17 54 29 201 24 73 31 86 65 107
44 28 50 54 14 54 -15 0 -32 -10 -44 -28 -16 -22 -33 -29 -88 -40 -77 -14
-114 -36 -128 -75 -12 -33 15 -77 47 -77 20 1 20 2 -6 16 -40 21 -35 70 9 96
28 16 133 42 140 35 2 -2 -10 -45 -27 -96 -36 -114 -45 -171 -30 -200 21 -38
70 -26 106 28 20 28 25 31 25 16 0 -31 28 -65 54 -65 43 0 78 55 122 190 35
110 59 160 92 187 19 16 22 23 11 23 -8 0 -25 -10 -37 -22z m-242 -8 c0 -5 -9
-14 -20 -20 -22 -12 -27 -1 -8 18 14 14 28 16 28 2z"/>
<path d="M11424 9078 c-41 -19 -55 -78 -28 -116 12 -17 25 -22 59 -22 24 0 47
5 50 11 5 7 -4 8 -28 4 -50 -10 -77 8 -77 49 0 54 27 70 107 63 91 -8 137 -24
127 -46 -4 -9 -26 -70 -49 -136 -23 -66 -47 -130 -54 -142 -12 -24 -60 -53
-86 -53 -24 0 -65 46 -65 73 0 34 35 75 73 86 31 9 31 9 5 10 -15 1 -40 -10
-57 -25 -26 -21 -31 -33 -31 -68 0 -54 30 -86 81 -86 68 0 92 34 153 215 21
60 42 115 48 122 7 8 36 13 79 13 70 0 90 10 69 35 -16 19 -77 19 -113 0 -26
-13 -36 -13 -105 5 -83 22 -126 24 -158 8z m364 -25 c2 -9 -10 -13 -42 -13
-25 0 -46 4 -46 9 0 22 81 25 88 4z"/>
<path d="M4832 9043 c-39 -27 -64 -37 -95 -37 -38 -1 -44 2 -59 34 -17 34 -18
34 -18 8 0 -65 78 -78 167 -28 29 17 53 29 53 27 0 -28 -53 -140 -95 -204 -57
-85 -71 -133 -37 -133 30 0 47 28 80 128 45 135 137 245 178 211 23 -19 16
-66 -26 -199 -22 -69 -40 -129 -40 -135 0 -26 24 31 60 147 35 108 45 131 76
158 27 23 44 30 67 28 50 -5 47 -44 -12 -217 -28 -81 -51 -157 -51 -168 0 -26
25 -53 48 -52 13 0 12 3 -5 11 -12 6 -24 16 -27 23 -6 17 13 85 58 210 34 94
45 167 28 191 -20 30 -89 19 -121 -20 -13 -16 -15 -15 -27 13 -11 25 -19 31
-45 31 -25 0 -41 -9 -71 -42 -43 -47 -44 -46 -23 11 18 52 8 52 -63 4z m-31
-239 c-14 -52 -40 -89 -54 -75 -7 7 0 27 23 65 19 31 36 54 38 52 2 -2 -1 -21
-7 -42z"/>
<path d="M13965 9058 c-33 -17 -45 -40 -45 -80 0 -27 5 -40 19 -48 25 -13 98
-13 106 0 4 7 -8 8 -35 4 -70 -11 -105 45 -60 94 25 27 69 29 147 6 44 -13 53
-19 48 -32 -4 -10 -16 -43 -27 -74 -17 -49 -24 -58 -44 -58 -13 0 -24 -4 -24
-10 0 -5 9 -10 20 -10 26 0 26 0 -10 -76 -32 -67 -50 -79 -106 -72 -35 4 -60
43 -50 81 8 32 43 67 68 67 10 0 18 5 18 10 0 13 -16 13 -43 -1 -38 -21 -56
-52 -57 -96 0 -57 36 -87 95 -80 47 7 74 36 103 111 17 45 23 51 51 54 37 4
42 22 5 22 -24 0 -25 3 -19 28 3 15 15 46 25 70 18 40 21 42 64 42 57 0 76 8
76 31 0 29 -43 34 -90 11 -40 -19 -41 -19 -112 -1 -82 22 -95 23 -123 7z m305
-18 c0 -13 -46 -24 -67 -16 -15 6 -15 8 -3 16 20 13 70 13 70 0z"/>
<path d="M5746 8973 c-16 -48 -20 -52 -42 -47 -52 13 -71 -2 -114 -90 -43 -88
-71 -123 -89 -111 -16 9 -13 35 9 101 28 81 17 116 -35 104 -5 -1 -19 -2 -31
-2 -17 0 -26 -13 -44 -67 -24 -70 -60 -114 -86 -104 -8 3 -13 11 -10 17 25 57
36 117 26 136 -13 25 -61 27 -85 4 -45 -45 -79 -161 -55 -189 17 -21 50 -19
74 4 25 23 83 18 89 -8 4 -18 9 -8 47 90 24 63 70 115 94 106 20 -8 20 -47 1
-94 -8 -19 -15 -53 -15 -74 0 -33 3 -39 22 -39 12 0 32 9 44 21 l22 21 11 -21
c15 -26 41 -27 74 -1 25 20 25 20 30 0 7 -26 48 -26 72 0 10 11 21 20 25 20 4
0 10 -9 13 -20 6 -25 43 -26 70 -3 18 17 19 17 28 0 12 -21 38 -22 65 -3 16
13 21 12 36 -1 10 -9 28 -13 43 -11 41 8 27 -24 -15 -34 -51 -13 -79 -29 -85
-49 -9 -28 12 -59 40 -59 26 0 72 43 81 75 3 11 27 32 53 47 33 18 57 41 75
73 15 26 25 49 22 52 -7 8 -6 9 -38 -47 -28 -49 -88 -94 -88 -66 0 12 29 95
69 199 6 15 7 27 2 27 -5 0 -22 -33 -37 -72 -32 -86 -50 -115 -77 -129 -15 -9
-23 -7 -35 5 -15 15 -14 24 15 106 40 113 27 119 -15 7 -30 -79 -61 -127 -83
-127 -22 0 -20 35 6 108 15 42 29 86 32 97 4 19 4 19 -10 2 -10 -12 -17 -14
-22 -8 -11 19 -61 12 -82 -11 -12 -13 -35 -53 -51 -90 -29 -65 -70 -106 -92
-93 -17 10 -12 38 31 159 22 64 39 122 37 128 -3 7 -13 -11 -22 -39z m-429
-69 c9 -23 -10 -89 -25 -86 -7 1 -12 -10 -12 -27 0 -20 -9 -36 -27 -51 -34
-26 -47 -22 -51 19 -8 84 90 208 115 145z m391 -11 c2 -12 -11 -52 -28 -88
-44 -92 -90 -112 -90 -39 0 42 23 101 53 132 26 28 61 26 65 -5z m210 -1 c2
-13 -10 -52 -26 -87 -42 -89 -92 -112 -92 -42 0 35 32 111 57 140 23 24 57 18
61 -11z m122 -242 c0 -16 -30 -58 -46 -64 -42 -16 -60 32 -22 58 25 18 68 21
68 6z"/>
<path d="M8052 9003 c-5 -10 -15 -35 -22 -56 -9 -28 -15 -36 -23 -28 -20 20
-64 12 -86 -15 -30 -39 -53 -106 -49 -150 2 -32 7 -40 26 -42 14 -2 33 5 47
18 l22 21 6 -20 c7 -29 52 -27 82 3 22 22 24 22 28 5 7 -28 37 -35 69 -16 25
14 30 15 34 2 8 -20 48 -19 64 0 12 14 15 14 31 -1 13 -11 28 -15 49 -11 16 4
30 3 30 -1 -1 -17 -17 -29 -49 -36 -19 -3 -46 -13 -59 -22 -20 -13 -23 -22
-19 -48 l5 -32 -51 7 c-29 4 -79 17 -112 30 -92 34 -251 32 -360 -5 -189 -64
-339 -213 -386 -382 -40 -143 -32 -381 15 -508 89 -236 309 -367 567 -337 89
10 135 30 187 80 53 51 83 119 90 197 4 54 2 64 -11 64 -9 0 -21 9 -27 19 -5
11 -25 29 -44 41 -48 29 -73 96 -58 148 19 64 59 93 141 102 115 13 198 76
261 199 60 120 60 198 -2 258 -35 34 -110 72 -141 73 -17 0 -15 4 8 32 15 18
31 42 36 55 5 13 17 26 26 30 52 18 130 106 121 135 -3 7 -15 -8 -29 -32 -21
-39 -86 -97 -96 -86 -2 2 15 54 37 117 22 63 40 118 40 124 0 21 -18 -13 -40
-75 -37 -104 -70 -147 -105 -134 -22 9 -18 52 10 125 14 35 24 71 23 78 -2 8
-20 -29 -41 -82 -36 -90 -68 -134 -89 -121 -15 9 -9 52 17 120 29 77 33 109
10 78 -8 -11 -15 -14 -15 -6 0 7 -14 12 -34 12 -40 0 -56 -18 -104 -120 -35
-73 -66 -101 -88 -78 -12 12 -7 34 31 148 41 122 52 171 27 123z m-53 -101
c19 -36 -58 -182 -96 -182 -22 0 -26 47 -8 101 28 82 81 124 104 81z m214 -3
c13 -20 -44 -149 -74 -167 -31 -20 -52 2 -44 45 19 105 86 173 118 122z m118
-261 c-4 -12 -20 -31 -35 -42 -24 -19 -27 -19 -42 -4 -30 29 5 66 63 67 19 1
21 -2 14 -21z"/>
<path d="M9767 8988 c-8 -19 -18 -45 -22 -57 -5 -17 -10 -20 -18 -12 -16 16
-63 13 -78 -5 -8 -9 -32 -51 -54 -93 -45 -85 -79 -111 -121 -92 -18 8 -24 18
-24 44 0 30 4 35 38 45 99 30 126 133 29 108 -30 -7 -75 -79 -83 -133 -5 -34
-3 -48 11 -63 26 -28 77 -26 114 5 l30 26 3 -23 c4 -32 43 -36 73 -8 22 21 22
21 28 1 4 -17 12 -20 49 -19 l44 2 27 73 c31 80 69 133 97 133 27 0 29 -20 9
-85 -25 -77 -22 -119 8 -123 12 -2 31 6 42 17 l21 21 20 -20 c11 -11 31 -20
45 -20 30 0 81 24 89 42 5 11 7 11 12 0 22 -48 89 -57 129 -17 30 29 32 63 5
115 -19 38 -19 42 -4 65 18 27 13 55 -10 55 -20 0 -29 -17 -28 -51 0 -16 -4
-31 -9 -34 -17 -11 -9 -26 10 -20 15 4 22 -2 34 -32 19 -48 6 -87 -34 -103
-39 -17 -79 8 -79 48 0 52 45 70 73 30 13 -19 16 -20 16 -6 1 20 -25 48 -45
48 -9 0 -26 -12 -40 -27 -76 -87 -94 -103 -112 -103 -28 0 -52 26 -52 55 0 19
10 28 47 45 63 28 83 47 83 82 0 28 -7 32 -45 28 -32 -3 -50 -26 -94 -115 -41
-82 -64 -106 -85 -85 -7 7 -3 31 12 78 12 38 22 78 22 90 0 29 -33 46 -61 31
-16 -8 -23 -8 -29 1 -5 8 -14 -6 -25 -36 -32 -88 -52 -129 -74 -151 -25 -26
-34 -28 -50 -10 -8 10 0 47 34 147 25 74 43 135 40 138 -2 2 -10 -11 -18 -30z
m504 -71 c-8 -8 -11 -5 -11 9 0 27 14 41 18 19 2 -9 -1 -22 -7 -28z m-713 -19
c-3 -23 -60 -68 -85 -68 -11 0 -11 4 -2 23 31 61 94 93 87 45z m161 4 c12 -22
-26 -122 -60 -158 -67 -72 -77 38 -13 139 26 40 57 49 73 19z m406 8 c10 -17
-13 -47 -50 -65 -45 -21 -51 -16 -31 24 23 43 66 65 81 41z"/>
<path d="M10515 8967 c-13 -39 -22 -54 -29 -47 -15 15 -63 12 -81 -6 -25 -25
-54 -88 -61 -133 -11 -67 27 -92 79 -51 25 20 25 20 30 0 7 -26 48 -26 72 0
10 11 21 20 25 20 4 0 10 -9 13 -20 6 -25 43 -26 70 -3 18 17 19 17 28 0 12
-21 43 -22 64 -1 15 15 17 15 35 -1 12 -11 29 -16 45 -13 17 4 25 1 25 -9 0
-15 -4 -17 -68 -33 -50 -13 -71 -44 -53 -79 25 -46 86 -17 115 54 8 19 21 35
29 35 33 0 127 98 127 133 0 18 -19 4 -30 -23 -17 -40 -94 -110 -98 -89 -1 9
15 64 36 122 22 59 36 107 32 107 -5 0 -21 -33 -35 -72 -30 -79 -68 -138 -89
-138 -8 0 -19 7 -27 16 -11 13 -8 30 19 105 39 112 26 118 -16 6 -40 -106 -82
-154 -98 -112 -4 9 8 56 25 105 34 98 37 114 17 87 -9 -12 -16 -14 -21 -8 -11
19 -61 12 -82 -11 -12 -13 -35 -53 -51 -90 -29 -65 -70 -106 -92 -93 -17 11
-12 39 31 160 22 63 39 121 36 128 -2 7 -12 -14 -22 -46z m-37 -73 c2 -12 -10
-51 -26 -87 -42 -92 -92 -115 -92 -41 0 70 55 158 95 152 12 -2 21 -12 23 -24z
m210 -2 c2 -13 -10 -52 -26 -87 -42 -89 -92 -112 -92 -42 0 35 32 111 57 140
23 24 57 18 61 -11z m122 -237 c0 -16 -31 -63 -45 -68 -43 -17 -62 30 -23 57
21 15 68 22 68 11z"/>
<path d="M11732 8964 c-69 -190 -90 -254 -82 -254 4 0 16 24 26 53 32 100 71
157 106 157 29 0 32 -24 8 -94 -27 -82 -24 -110 12 -114 19 -2 31 3 40 17 12
19 12 19 26 0 16 -23 49 -25 79 -4 19 13 22 13 27 0 3 -8 17 -15 31 -15 28 0
59 41 96 128 20 49 24 53 48 47 14 -4 27 -8 29 -9 1 -2 -5 -32 -15 -68 -9 -35
-14 -72 -10 -81 9 -23 50 -21 72 3 l18 20 22 -20 c30 -28 80 -26 110 5 30 29
32 69 8 120 -14 29 -15 38 -3 59 15 29 8 56 -15 56 -18 0 -21 -8 -29 -67 -5
-33 -3 -41 8 -37 8 3 20 -8 30 -31 22 -45 11 -84 -29 -104 -54 -26 -104 26
-75 78 15 28 54 27 68 -1 8 -17 11 -19 11 -6 1 18 -24 48 -40 48 -24 0 -49
-23 -69 -65 -25 -52 -52 -72 -69 -51 -8 10 -6 29 9 77 11 35 20 65 20 66 0 2
-14 9 -32 16 -26 11 -32 19 -33 42 0 20 -6 31 -18 33 -23 5 -33 -24 -17 -52
10 -20 7 -33 -29 -103 -39 -79 -67 -106 -82 -81 -10 15 -4 42 27 127 13 35 24
68 24 74 0 20 -16 -7 -35 -58 -32 -90 -56 -132 -78 -142 -53 -24 -60 10 -21
117 37 103 24 109 -15 6 -32 -81 -68 -136 -89 -136 -20 0 -20 31 -2 86 11 32
20 70 20 85 0 35 -30 55 -59 39 -30 -16 -32 -13 -15 30 9 21 14 45 12 51 -2 7
-14 -14 -26 -47z m388 -26 c0 -16 -3 -19 -11 -11 -6 6 -8 16 -5 22 11 17 16
13 16 -11z m249 -9 c-13 -26 -23 -18 -14 10 3 12 11 19 16 16 5 -4 5 -14 -2
-26z"/>
<path d="M12606 8965 l-17 -54 -27 14 c-22 12 -30 12 -47 1 -51 -33 -93 -143
-74 -193 11 -29 49 -31 75 -2 l18 20 8 -20 c11 -30 53 -27 83 5 l23 25 4 -23
c4 -30 42 -36 70 -12 19 18 20 18 29 1 12 -21 52 -22 69 -2 12 14 15 14 31 -1
12 -10 29 -15 49 -12 16 3 30 2 30 -1 -1 -16 -19 -29 -50 -36 -55 -11 -80 -31
-80 -64 0 -29 15 -41 50 -41 19 0 61 48 73 83 4 9 19 22 34 28 49 18 120 103
111 131 -3 7 -15 -8 -29 -32 -21 -39 -86 -97 -96 -86 -2 2 15 56 38 120 47
136 46 169 -2 42 -34 -91 -74 -141 -102 -130 -24 9 -21 45 8 127 14 38 24 75
22 81 -2 6 -18 -28 -37 -76 -30 -82 -67 -138 -88 -138 -23 0 -20 38 8 118 33
94 37 117 16 89 -9 -12 -16 -14 -21 -8 -10 17 -61 13 -76 -5 -8 -9 -30 -48
-49 -87 -39 -78 -82 -119 -103 -98 -9 10 -3 39 35 147 25 74 43 136 39 139 -4
2 -15 -20 -25 -50z m-38 -73 c2 -13 -10 -52 -26 -87 -42 -89 -92 -112 -92 -42
0 35 32 111 57 140 23 24 57 18 61 -11z m210 11 c17 -30 -32 -142 -74 -170
-22 -14 -27 -14 -35 -2 -13 19 -3 83 21 129 29 57 70 76 88 43z m123 -265 c-4
-12 -20 -31 -34 -42 -22 -16 -29 -17 -42 -6 -8 7 -15 18 -15 26 0 19 40 44 72
44 24 0 26 -3 19 -22z"/>
<path d="M14665 8967 c-13 -39 -22 -54 -29 -47 -14 14 -59 13 -79 -2 -9 -7
-32 -47 -50 -88 -36 -77 -68 -117 -86 -105 -17 10 -13 35 19 123 16 45 26 82
21 82 -4 0 -23 -38 -40 -83 -31 -83 -70 -135 -90 -122 -16 9 -14 34 9 99 l19
57 -25 9 c-14 6 -30 10 -35 10 -5 0 -9 16 -9 35 0 28 -4 35 -19 35 -28 0 -34
-15 -20 -53 10 -28 9 -38 -10 -75 -23 -46 -25 -52 -12 -52 4 0 16 20 25 45 21
53 27 58 59 46 l25 -10 -19 -61 c-14 -45 -16 -67 -9 -81 13 -24 37 -24 63 -2
18 17 19 17 28 0 13 -23 40 -22 67 3 l21 20 11 -20 c13 -24 38 -26 69 -4 22
16 24 16 33 0 12 -22 51 -20 73 4 10 11 21 20 25 20 4 0 10 -9 13 -20 6 -24
34 -26 66 -4 22 16 24 16 33 0 11 -20 38 -21 63 -2 16 12 21 11 34 -1 8 -9 26
-13 43 -11 43 7 32 -23 -12 -34 -76 -19 -102 -47 -80 -88 23 -43 101 -6 116
56 4 15 23 31 51 45 53 26 128 129 94 129 -5 0 -14 -13 -21 -30 -15 -36 -92
-109 -98 -92 -4 13 7 49 51 165 15 37 23 67 18 67 -4 0 -21 -33 -36 -72 -33
-86 -51 -115 -78 -129 -15 -9 -23 -7 -36 5 -15 16 -14 23 16 106 40 113 27
119 -15 7 -32 -84 -71 -135 -92 -122 -15 9 -7 54 25 135 28 71 31 94 11 67 -9
-12 -16 -14 -21 -8 -11 19 -61 12 -82 -11 -12 -13 -35 -53 -51 -90 -29 -65
-70 -106 -92 -93 -16 10 -12 31 31 156 22 65 39 124 36 131 -2 7 -12 -13 -22
-45z m-393 -39 c-9 -9 -12 -7 -12 12 0 19 3 21 12 12 9 -9 9 -15 0 -24z m354
-32 c3 -15 -5 -47 -24 -89 -42 -92 -92 -115 -92 -41 0 95 97 204 116 130z
m212 -4 c2 -13 -10 -52 -26 -87 -41 -86 -92 -112 -92 -46 0 69 56 164 93 159
14 -2 23 -11 25 -26z m122 -237 c0 -16 -31 -63 -45 -68 -43 -17 -62 30 -23 57
21 15 68 22 68 11z"/>
<path d="M14470 8980 c0 -5 5 -10 10 -10 6 0 10 5 10 10 0 6 -4 10 -10 10 -5
0 -10 -4 -10 -10z"/>
<path d="M7776 8948 c-15 -75 -15 -87 -1 -82 16 6 45 -43 45 -76 0 -27 -43
-70 -70 -70 -25 0 -60 34 -60 59 0 46 63 69 80 29 l9 -23 0 23 c1 29 -38 49
-67 33 -11 -6 -31 -30 -44 -53 -28 -52 -69 -75 -104 -59 -18 8 -24 18 -24 44
0 31 4 35 38 45 82 25 124 103 60 110 -45 5 -65 -14 -107 -103 -42 -87 -75
-121 -88 -88 -4 9 6 56 23 105 17 49 28 90 25 93 -2 3 -21 -36 -41 -87 -43
-107 -78 -145 -108 -115 -17 18 -13 37 46 196 3 8 1 12 -5 8 -19 -12 -65 -152
-61 -188 3 -29 7 -34 31 -37 17 -2 37 4 48 14 17 15 19 15 25 0 9 -22 47 -20
69 4 l18 20 22 -20 c29 -27 77 -26 111 3 l27 23 23 -23 c48 -48 134 -14 134
53 0 19 -7 49 -16 66 -12 24 -14 36 -5 55 17 38 14 63 -9 63 -12 0 -21 -8 -24
-22z m28 -13 c-6 -16 -24 -21 -24 -7 0 11 11 22 21 22 5 0 6 -7 3 -15z m-156
-37 c-3 -23 -60 -68 -85 -68 -11 0 -11 4 -2 23 31 61 94 93 87 45z"/>
<path d="M9610 8550 c-27 -27 -26 -71 3 -97 24 -22 646 -403 656 -402 3 0 22
25 42 56 l37 57 -333 203 c-211 129 -342 203 -359 203 -14 0 -35 -9 -46 -20z"/>
<path d="M10640 7970 c0 -6 -18 -30 -41 -55 l-40 -44 53 -33 c193 -122 222
-137 326 -162 56 -13 102 -21 102 -19 0 3 -30 41 -67 85 -57 67 -87 91 -195
159 -71 43 -130 79 -133 79 -3 0 -5 -5 -5 -10z"/>
<path d="M9845 7573 c-165 -157 -359 -341 -431 -409 l-132 -124 -448 30 c-247
17 -473 35 -502 41 -32 6 -214 9 -475 7 -413 -3 -423 -4 -478 -26 -70 -28
-140 -88 -176 -150 -15 -26 -162 -242 -328 -480 -361 -521 -402 -585 -416
-637 -14 -51 -6 -133 18 -178 10 -19 171 -207 358 -417 187 -210 339 -389 339
-398 -1 -10 -11 -57 -22 -107 -27 -116 -42 -257 -42 -387 -1 -89 16 -196 126
-805 l128 -702 -93 -488 c-52 -268 -128 -671 -170 -895 l-77 -408 150 0 151 0
57 198 c32 108 100 341 152 517 51 176 144 491 204 700 l111 380 -15 698 c-9
384 -14 704 -11 711 4 10 15 12 37 7 31 -6 33 -10 310 -691 l278 -686 16 -144
c13 -124 44 -424 154 -1515 l17 -170 145 4 c80 2 146 4 147 5 1 1 9 260 17
576 9 316 21 738 26 938 l10 363 -71 242 c-39 133 -81 276 -94 317 -13 41
-130 433 -260 870 l-237 795 56 350 c92 579 178 1110 180 1112 1 1 209 20 463
42 253 22 473 45 489 51 16 6 43 22 61 36 26 20 267 305 348 413 11 14 111
139 222 278 l202 251 -82 74 c-45 40 -89 78 -97 84 -12 10 -70 -40 -315 -273z
m-2604 -1494 c27 -157 48 -325 69 -558 16 -184 28 -336 26 -338 -5 -5 -516
576 -523 594 -5 11 377 536 385 529 1 -2 21 -104 43 -227z"/>
<path d="M13820 6588 c0 -436 -84 -847 -240 -1175 l-49 -103 783 0 784 0 25
68 c36 97 84 295 108 447 35 225 37 733 3 908 l-6 27 -704 0 -704 0 0 -172z"/>
<path d="M19270 6694 c-41 -19 -203 -76 -360 -125 -470 -149 -589 -191 -710
-250 -340 -168 -553 -367 -938 -877 -155 -206 -171 -230 -232 -350 -126 -251
-233 -581 -362 -1112 l-43 -175 -2 -570 -3 -570 49 191 c94 366 173 603 265
798 69 146 114 217 254 406 65 86 150 201 189 256 97 133 280 326 624 662 523
508 685 691 870 984 89 141 378 591 449 700 14 21 33 41 43 44 18 6 14 24 -6
24 -7 0 -46 -16 -87 -36z"/>
<path d="M647 6684 c-3 -3 9 -20 26 -38 28 -28 307 -440 496 -731 94 -146 170
-242 317 -405 126 -139 200 -212 724 -707 248 -234 404 -399 495 -523 31 -41
110 -146 178 -233 202 -262 275 -398 403 -752 l43 -120 0 535 1 535 -41 135
c-128 427 -256 721 -397 910 -101 136 -334 421 -432 529 -257 283 -529 458
-891 574 -96 31 -304 95 -463 142 -159 47 -324 101 -366 120 -84 38 -84 38
-93 29z"/>
<path d="M11441 6610 c-8 -4 -11 -15 -8 -23 3 -8 160 -150 349 -316 189 -166
343 -306 343 -311 0 -4 -126 -122 -280 -261 -420 -379 -408 -367 -401 -384 3
-8 12 -15 20 -15 8 0 169 140 358 310 189 171 348 309 354 308 6 -2 165 -138
352 -303 188 -165 350 -301 360 -303 11 -2 22 4 25 12 4 10 -104 111 -348 326
l-354 311 117 107 c65 59 220 199 345 312 214 193 255 240 209 240 -16 0 -119
-90 -541 -472 -90 -82 -167 -148 -172 -146 -5 2 -162 138 -350 303 -188 165
-347 303 -353 307 -7 4 -18 3 -25 -2z"/>
<path d="M7029 907 c0 -1 -3 -23 -6 -49 l-5 -48 256 0 c156 0 256 4 256 10 0
20 -22 57 -43 69 -27 18 -148 15 -204 -4 -62 -21 -159 -19 -210 5 -24 10 -43
18 -44 17z"/>
<path d="M8704 884 c2 -16 5 -39 5 -51 l1 -23 260 0 c251 0 260 1 260 19 0 11
-11 32 -24 47 -33 39 -127 45 -215 15 -90 -31 -176 -27 -274 14 -15 6 -17 3
-13 -21z"/>
</g>
</svg>
